<svg width="117" height="44" viewBox="0 0 117 44" fill="none" xmlns="http://www.w3.org/2000/svg">
<rect x="2" y="2" width="113" height="40" fill="#F5F5F5"/>
<g filter="url(#filter0_d_230_22305)">
<rect x="2" y="2" width="113" height="40" rx="2" fill="white"/>
<rect x="2.5" y="2.5" width="112" height="39" rx="1.5" stroke="#D9D9D9"/>
<g clip-path="url(#clip0_230_22305)">
<path d="M32.4201 24.9672H23.1154L23.5826 24.0156L31.3451 24.0016C31.6076 24.0016 31.8326 23.8141 31.8794 23.5547L32.9544 17.5375C32.9826 17.3797 32.9404 17.2172 32.8372 17.0938C32.7863 17.033 32.7227 16.9841 32.6509 16.9503C32.5792 16.9166 32.5009 16.8989 32.4216 16.8984L22.5466 16.8656L22.4622 16.4688C22.4091 16.2156 22.181 16.0312 21.9216 16.0312H19.5076C19.3613 16.0312 19.221 16.0894 19.1175 16.1928C19.0141 16.2962 18.956 16.4365 18.956 16.5828C18.956 16.7291 19.0141 16.8694 19.1175 16.9728C19.221 17.0763 19.3613 17.1344 19.5076 17.1344H21.4747L21.8435 18.8875L22.7513 23.2828L21.5826 25.1906C21.5219 25.2725 21.4853 25.3698 21.477 25.4714C21.4687 25.573 21.4891 25.675 21.5357 25.7656C21.6294 25.9516 21.8185 26.0688 22.0279 26.0688H23.0091C22.7999 26.3466 22.6869 26.685 22.6872 27.0328C22.6872 27.9172 23.406 28.6359 24.2904 28.6359C25.1747 28.6359 25.8935 27.9172 25.8935 27.0328C25.8935 26.6844 25.7779 26.3453 25.5716 26.0688H28.0888C27.8796 26.3466 27.7666 26.685 27.7669 27.0328C27.7669 27.9172 28.4857 28.6359 29.3701 28.6359C30.2544 28.6359 30.9732 27.9172 30.9732 27.0328C30.9732 26.6844 30.8576 26.3453 30.6513 26.0688H32.4216C32.7247 26.0688 32.9732 25.8219 32.9732 25.5172C32.9723 25.3711 32.9136 25.2312 32.81 25.1282C32.7064 25.0251 32.5662 24.9673 32.4201 24.9672ZM22.7763 17.9531L31.7732 17.9828L30.8919 22.9172L23.8247 22.9297L22.7763 17.9531ZM24.2904 27.5266C24.0185 27.5266 23.7966 27.3047 23.7966 27.0328C23.7966 26.7609 24.0185 26.5391 24.2904 26.5391C24.5622 26.5391 24.7841 26.7609 24.7841 27.0328C24.7841 27.1638 24.7321 27.2894 24.6395 27.3819C24.5469 27.4745 24.4213 27.5266 24.2904 27.5266ZM29.3701 27.5266C29.0982 27.5266 28.8763 27.3047 28.8763 27.0328C28.8763 26.7609 29.0982 26.5391 29.3701 26.5391C29.6419 26.5391 29.8638 26.7609 29.8638 27.0328C29.8638 27.1638 29.8118 27.2894 29.7192 27.3819C29.6266 27.4745 29.501 27.5266 29.3701 27.5266Z" fill="#8C8C8C"/>
<path d="M42.6172 22.1172L48.2656 28H46.3359L41.1328 22.5234H41.0703V28H39.6641V16.7266H41.0703V21.9219H41.1328L45.9766 16.7266H47.7422L42.6172 22.1172ZM52.3047 28.1406C51.1693 28.1406 50.2578 27.763 49.5703 27.0078C48.8828 26.2474 48.5391 25.224 48.5391 23.9375C48.5391 22.651 48.8828 21.6302 49.5703 20.875C50.2578 20.1146 51.1693 19.7344 52.3047 19.7344C53.4349 19.7344 54.3438 20.1146 55.0312 20.875C55.7188 21.6302 56.0625 22.651 56.0625 23.9375C56.0625 25.2188 55.7188 26.2396 55.0312 27C54.3438 27.7604 53.4349 28.1406 52.3047 28.1406ZM50.5625 26.1484C50.9948 26.6797 51.5755 26.9453 52.3047 26.9453C53.0339 26.9453 53.612 26.6823 54.0391 26.1562C54.4661 25.625 54.6797 24.8854 54.6797 23.9375C54.6797 22.9896 54.4661 22.2526 54.0391 21.7266C53.612 21.1953 53.0339 20.9297 52.3047 20.9297C51.5755 20.9297 50.9948 21.1953 50.5625 21.7266C50.1354 22.2578 49.9219 22.9948 49.9219 23.9375C49.9219 24.8802 50.1354 25.6172 50.5625 26.1484ZM61.5234 19.7344C62.5651 19.7344 63.4036 20.1172 64.0391 20.8828C64.6797 21.6484 65 22.6667 65 23.9375C65 25.2031 64.6823 26.2214 64.0469 26.9922C63.4115 27.7578 62.5807 28.1406 61.5547 28.1406C60.9818 28.1406 60.4688 28.0104 60.0156 27.75C59.5625 27.4896 59.2135 27.1328 58.9688 26.6797H58.9375V30.7109H57.5781V19.875H58.8672V21.25H58.8984C59.1536 20.7812 59.5104 20.4115 59.9688 20.1406C60.4271 19.8698 60.9453 19.7344 61.5234 19.7344ZM61.2578 26.9453C61.9818 26.9453 62.5547 26.6745 62.9766 26.1328C63.3984 25.5911 63.6094 24.8594 63.6094 23.9375C63.6094 23.0156 63.3984 22.2839 62.9766 21.7422C62.5547 21.2005 61.9818 20.9297 61.2578 20.9297C60.5599 20.9297 59.9974 21.2057 59.5703 21.7578C59.1432 22.3099 58.9297 23.0365 58.9297 23.9375C58.9297 24.8438 59.1432 25.5729 59.5703 26.125C59.9974 26.6719 60.5599 26.9453 61.2578 26.9453ZM69.2188 28.1406C68.3229 28.1406 67.5807 27.9375 66.9922 27.5312C66.4036 27.1198 66.0755 26.5729 66.0078 25.8906H67.3828C67.4609 26.2448 67.6589 26.5208 67.9766 26.7188C68.2995 26.9167 68.7135 27.0156 69.2188 27.0156C69.7969 27.0156 70.2474 26.8932 70.5703 26.6484C70.8932 26.3984 71.0547 26.0703 71.0547 25.6641C71.0547 25.2109 70.9036 24.8776 70.6016 24.6641C70.2995 24.4453 69.8385 24.3359 69.2188 24.3359H68V23.2266H69.2188C70.2604 23.2266 70.7812 22.8307 70.7812 22.0391C70.7812 21.6849 70.651 21.401 70.3906 21.1875C70.1354 20.974 69.7552 20.8672 69.25 20.8672C68.7708 20.8672 68.375 20.9635 68.0625 21.1562C67.75 21.349 67.5651 21.6068 67.5078 21.9297H66.1875C66.276 21.2578 66.5938 20.724 67.1406 20.3281C67.6875 19.9323 68.3906 19.7344 69.25 19.7344C70.1562 19.7344 70.8594 19.9349 71.3594 20.3359C71.8594 20.7318 72.1094 21.263 72.1094 21.9297C72.1094 22.3464 71.9844 22.7188 71.7344 23.0469C71.4896 23.375 71.1667 23.5859 70.7656 23.6797V23.7422C71.2917 23.8568 71.6927 24.0781 71.9688 24.4062C72.25 24.7292 72.3906 25.1276 72.3906 25.6016C72.3906 26.362 72.099 26.9766 71.5156 27.4453C70.9375 27.9089 70.1719 28.1406 69.2188 28.1406ZM75.2891 28H73.9453V19.875H75.2891V25.9219H75.3516L79.4141 19.875H80.7578V28H79.4141V21.9531H79.3516L75.2891 28ZM88.0156 28V24.3438H84.0078V28H82.6641V19.875H84.0078V23.2266H88.0156V19.875H89.3594V28H88.0156ZM93.9609 26.9844C94.6016 26.9844 95.138 26.7865 95.5703 26.3906C96.0078 25.9896 96.2266 25.4974 96.2266 24.9141V24.25L94.0547 24.3828C93.5078 24.4193 93.0833 24.5521 92.7812 24.7812C92.4844 25.0104 92.3359 25.3177 92.3359 25.7031C92.3359 26.0885 92.4844 26.3984 92.7812 26.6328C93.0781 26.8672 93.4714 26.9844 93.9609 26.9844ZM93.6562 28.1406C92.849 28.1406 92.1953 27.9167 91.6953 27.4688C91.2005 27.0208 90.9531 26.4323 90.9531 25.7031C90.9531 25.0052 91.2083 24.4479 91.7188 24.0312C92.2344 23.6146 92.9609 23.3802 93.8984 23.3281L96.2266 23.1953V22.5156C96.2266 22.0208 96.0703 21.6328 95.7578 21.3516C95.4453 21.0703 95.0078 20.9297 94.4453 20.9297C93.9297 20.9297 93.5104 21.0443 93.1875 21.2734C92.8646 21.4974 92.6589 21.8125 92.5703 22.2188H91.2578C91.3047 21.4948 91.6172 20.901 92.1953 20.4375C92.7786 19.9688 93.5391 19.7344 94.4766 19.7344C95.4297 19.7344 96.1849 19.974 96.7422 20.4531C97.3047 20.9323 97.5859 21.5755 97.5859 22.3828V28H96.2969V26.6016H96.2656C96.0208 27.0651 95.6615 27.4375 95.1875 27.7188C94.7135 28 94.2031 28.1406 93.6562 28.1406Z" fill="#595959"/>
</g>
</g>
<defs>
<filter id="filter0_d_230_22305" x="0" y="0" width="117" height="44" filterUnits="userSpaceOnUse" color-interpolation-filters="sRGB">
<feFlood flood-opacity="0" result="BackgroundImageFix"/>
<feColorMatrix in="SourceAlpha" type="matrix" values="0 0 0 0 0 0 0 0 0 0 0 0 0 0 0 0 0 0 127 0" result="hardAlpha"/>
<feOffset/>
<feGaussianBlur stdDeviation="1"/>
<feColorMatrix type="matrix" values="0 0 0 0 0 0 0 0 0 0 0 0 0 0 0 0 0 0 0.01 0"/>
<feBlend mode="normal" in2="BackgroundImageFix" result="effect1_dropShadow_230_22305"/>
<feBlend mode="normal" in="SourceGraphic" in2="effect1_dropShadow_230_22305" result="shape"/>
</filter>
<clipPath id="clip0_230_22305">
<rect width="81" height="24" fill="white" transform="translate(18 10)"/>
</clipPath>
</defs>
</svg>
