<svg width="26" height="26" viewBox="0 0 26 26" fill="none" xmlns="http://www.w3.org/2000/svg">
<path d="M22.8228 0.321533H4.07275C2.34932 0.321533 0.947754 1.7231 0.947754 3.44653V22.1965C0.947754 23.92 2.34932 25.3215 4.07275 25.3215H22.8228C24.5462 25.3215 25.9478 23.92 25.9478 22.1965V3.44653C25.9478 1.7231 24.5462 0.321533 22.8228 0.321533Z" fill="#1976D2"/>
<path d="M22.0415 12.8215H18.1353V9.69653C18.1353 8.83403 18.8353 8.91528 19.6978 8.91528H21.2603V5.00903H18.1353C15.5462 5.00903 13.4478 7.10747 13.4478 9.69653V12.8215H10.3228V16.7278H13.4478V25.3215H18.1353V16.7278H20.479L22.0415 12.8215Z" fill="#FAFAFA"/>
</svg>
