<svg width="26" height="26" viewBox="0 0 26 26" fill="none" xmlns="http://www.w3.org/2000/svg">
<path d="M18.1353 0.321533H8.76025C4.44619 0.321533 0.947754 3.81997 0.947754 8.13403V17.509C0.947754 21.8231 4.44619 25.3215 8.76025 25.3215H18.1353C22.4493 25.3215 25.9478 21.8231 25.9478 17.509V8.13403C25.9478 3.81997 22.4493 0.321533 18.1353 0.321533ZM23.604 17.509C23.604 20.5247 21.1509 22.9778 18.1353 22.9778H8.76025C5.74463 22.9778 3.2915 20.5247 3.2915 17.509V8.13403C3.2915 5.11841 5.74463 2.66528 8.76025 2.66528H18.1353C21.1509 2.66528 23.604 5.11841 23.604 8.13403V17.509Z" fill="url(#paint0_linear_243_55)"/>
<path d="M13.4478 6.57153C9.99619 6.57153 7.19775 9.36997 7.19775 12.8215C7.19775 16.2731 9.99619 19.0715 13.4478 19.0715C16.8993 19.0715 19.6978 16.2731 19.6978 12.8215C19.6978 9.36997 16.8993 6.57153 13.4478 6.57153ZM13.4478 16.7278C11.2946 16.7278 9.5415 14.9747 9.5415 12.8215C9.5415 10.6668 11.2946 8.91528 13.4478 8.91528C15.6009 8.91528 17.354 10.6668 17.354 12.8215C17.354 14.9747 15.6009 16.7278 13.4478 16.7278Z" fill="url(#paint1_linear_243_55)"/>
<path d="M20.1666 6.93564C20.6265 6.93564 20.9994 6.56278 20.9994 6.10283C20.9994 5.64288 20.6265 5.27002 20.1666 5.27002C19.7066 5.27002 19.3337 5.64288 19.3337 6.10283C19.3337 6.56278 19.7066 6.93564 20.1666 6.93564Z" fill="url(#paint2_linear_243_55)"/>
<defs>
<linearGradient id="paint0_linear_243_55" x1="3.23627" y1="23.0332" x2="23.6592" y2="2.60989" gradientUnits="userSpaceOnUse">
<stop stop-color="#FFC107"/>
<stop offset="0.507" stop-color="#F44336"/>
<stop offset="0.99" stop-color="#9C27B0"/>
</linearGradient>
<linearGradient id="paint1_linear_243_55" x1="9.02846" y1="17.2408" x2="17.8671" y2="8.40224" gradientUnits="userSpaceOnUse">
<stop stop-color="#FFC107"/>
<stop offset="0.507" stop-color="#F44336"/>
<stop offset="0.99" stop-color="#9C27B0"/>
</linearGradient>
<linearGradient id="paint2_linear_243_55" x1="19.5777" y1="6.69181" x2="20.7554" y2="5.514" gradientUnits="userSpaceOnUse">
<stop stop-color="#FFC107"/>
<stop offset="0.507" stop-color="#F44336"/>
<stop offset="0.99" stop-color="#9C27B0"/>
</linearGradient>
</defs>
</svg>
