<svg width="36" height="21" viewBox="0 0 36 21" fill="none" xmlns="http://www.w3.org/2000/svg">
<path d="M18.0988 20.7373H20.1934C20.1934 20.7373 20.8266 20.6672 21.1486 20.3188C21.4466 19.9989 21.4356 19.3986 21.4356 19.3986C21.4356 19.3986 21.394 16.5877 22.6998 16.1736C23.9859 15.7661 25.6378 18.8903 27.3884 20.0931C28.7117 21.0024 29.7173 20.803 29.7173 20.803L34.3994 20.7373C34.3994 20.7373 36.8488 20.5861 35.6876 18.6603C35.5934 18.5025 35.0106 17.2362 32.2062 14.6333C29.2704 11.9078 29.6648 12.3504 33.2009 7.6377C35.3546 4.76759 36.2156 3.01484 35.9462 2.26554C35.6898 1.5513 34.1058 1.73972 34.1058 1.73972L28.8388 1.77039C28.8388 1.77039 28.4488 1.71781 28.1574 1.89089C27.8748 2.06179 27.6929 2.45615 27.6929 2.45615C27.6929 2.45615 26.8582 4.67776 25.7452 6.56634C23.3987 10.5516 22.4588 10.762 22.0754 10.5144C21.1837 9.93818 21.4071 8.19639 21.4071 6.96071C21.4071 3.0981 21.9921 1.48776 20.2657 1.07148C19.6917 0.933456 19.271 0.841437 17.8053 0.826101C15.9254 0.806382 14.3326 0.832673 13.4322 1.27305C12.8318 1.56664 12.3696 2.22172 12.6522 2.25897C13.0005 2.30498 13.7893 2.47149 14.2078 3.04113C14.7489 3.77509 14.7292 5.42705 14.7292 5.42705C14.7292 5.42705 15.0403 9.97324 14.004 10.5385C13.2919 10.9263 12.317 10.1354 10.2246 6.51814C9.15328 4.6668 8.34263 2.61828 8.34263 2.61828C8.34263 2.61828 8.18708 2.23706 7.90883 2.0333C7.57142 1.78573 7.09818 1.70686 7.09818 1.70686L2.08972 1.73753C2.08972 1.73753 1.33823 1.75944 1.06217 2.08589C0.816787 2.37728 1.04245 2.97759 1.04245 2.97759C1.04245 2.97759 4.96422 12.151 9.40304 16.7761C13.476 21.0155 18.0988 20.7373 18.0988 20.7373Z" fill="#1E88E5"/>
</svg>
